<?xml version="1.0" standalone="no"?>
<!DOCTYPE svg PUBLIC "-//W3C//DTD SVG 1.1//EN" "http://www.w3.org/Graphics/SVG/1.1/DTD/svg11.dtd" >
<!--
2013-9-30: Created.
-->
<svg>
<metadata>
Created by iconfont
</metadata>
<defs>

<font id="iconfont" horiz-adv-x="1024" >
  <font-face
    font-family="iconfont"
    font-weight="500"
    font-stretch="normal"
    units-per-em="1024"
    ascent="896"
    descent="-128"
  />
    <missing-glyph />
    
    <glyph glyph-name="x" unicode="x" horiz-adv-x="1001"
d="M281 543q-27 -1 -53 -1h-83q-18 0 -36.5 -6t-32.5 -18.5t-23 -32t-9 -45.5v-76h912v41q0 16 -0.5 30t-0.5 18q0 13 -5 29t-17 29.5t-31.5 22.5t-49.5 9h-133v-97h-438v97zM955 310v-52q0 -23 0.5 -52t0.5 -58t-10.5 -47.5t-26 -30t-33 -16t-31.5 -4.5q-14 -1 -29.5 -0.5
t-29.5 0.5h-32l-45 128h-439l-44 -128h-29h-34q-20 0 -45 1q-25 0 -41 9.5t-25.5 23t-13.5 29.5t-4 30v167h911zM163 247q-12 0 -21 -8.5t-9 -21.5t9 -21.5t21 -8.5q13 0 22 8.5t9 21.5t-9 21.5t-22 8.5zM316 123q-8 -26 -14 -48q-5 -19 -10.5 -37t-7.5 -25t-3 -15t1 -14.5
t9.5 -10.5t21.5 -4h37h67h81h80h64h36q23 0 34 12t2 38q-5 13 -9.5 30.5t-9.5 34.5q-5 19 -11 39h-368zM336 498v228q0 11 2.5 23t10 21.5t20.5 15.5t34 6h188q31 0 51.5 -14.5t20.5 -52.5v-227h-327z" />
    

    
    <glyph glyph-name="benzi" unicode="&#13408;" d="M839.5872-86.6828H186.79401221421955c-20.8017 0-37.657 16.7856-37.657 37.4746v649.5595985921545c0 20.696 16.8553 37.4746 37.657 37.4746h62.76701740990989v-37.47459222647045c0-41.3919 33.7255-74.9492 75.314-74.9492 41.6035 0 75.343 33.5572 75.343 74.9492v37.47459222647045h37.64402075877666v-37.47459222647045c0-41.3919 33.7255-74.9492 75.328-74.9492 41.5895 0 75.329 33.5572 75.329 74.9492v37.47459222647045h37.64302139537115v-37.47459222647045c0-41.3919 33.7405-74.9492 75.329-74.9492 41.6035 0 75.329 33.5572 75.329 74.9492v37.47459222647045h62.76701740990989c20.8007 0 37.658-16.7786 37.658-37.4746v-649.5595985921545C877.2442-69.8982 860.3879-86.6828 839.5872-86.6828zM739.1492 425.4699H287.2330325582604c-20.8017 0-37.671-16.7786-37.671-37.4746 0-20.696 16.8693-37.4746 37.671-37.4746H739.1491619838163c20.8007 0 37.671 16.7786 37.671 37.4746C776.8202 408.6913 759.9499 425.4699 739.1492 425.4699zM739.1492 263.08H287.2330325582604c-20.8017 0-37.671-16.7786-37.671-37.4746s16.8693-37.4746 37.671-37.4746H739.1491619838163c20.8007 0 37.671 16.7786 37.671 37.4746S759.9499 263.08 739.1492 263.08zM745.4222 100.6901h-464.4641363451481c-17.343 0-31.397-13.9825-31.397-31.2288 0-17.2453 14.054-31.2288 31.397-31.2288h464.4641363451481c17.344 0 31.398 13.9835 31.398 31.2288C776.8202 86.7066 762.7661 100.6901 745.4222 100.6901zM701.4912 562.8768c-20.7878 0-37.658 16.7786-37.658 37.4746v74.9491844529409c0 20.696 16.8703 37.4746 37.658 37.4746 20.8007 0 37.658-16.7786 37.658-37.4746v-74.9491844529409C739.1492 579.6554 722.2919 562.8768 701.4912 562.8768zM513.1901 562.8768c-20.8007 0-37.657 16.7786-37.657 37.4746v74.9491844529409c0 20.696 16.8553 37.4746 37.657 37.4746 20.8017 0 37.658-16.7786 37.658-37.4746v-74.9491844529409C550.8481 579.6554 533.9928 562.8768 513.1901 562.8768zM324.8761 562.8768c-20.7878 0-37.643 16.7786-37.643 37.4746v74.9491844529409c0 20.696 16.8553 37.4746 37.643 37.4746 20.8017 0 37.671-16.7786 37.671-37.4746v-74.9491844529409C362.5471 579.6554 345.6768 562.8768 324.8761 562.8768z"  horiz-adv-x="1000" />

    
    <glyph glyph-name="hongbao" unicode="&#59015;" d="M380.544 379.104c-12.48-12.48-12.48-32.768 0-45.248l99.904-96.64L480.448 172 414.848 172c0 0-32 0-32-32s32-32 32-32l65.6 0 0-64L414.848 44c-17.28 0-32-14.336-32-32 0-17.152 14.336-32 32-32l65.6 0 0-32c0-17.664 14.336-32 32-32s32 14.336 32 32L544.448-20l62.336 0c17.28 0 34.304 14.336 34.304 32 0 17.152-16.64 32-34.304 32L544.448 44l0 64 62.336 0c17.28 0 34.304 14.336 34.304 32 0 17.152-16.64 32-34.304 32L544.448 172 544.448 237.152l96.64 96.64c12.48 12.48 12.48 32.768 0 45.248s-32.768 12.48-45.248 0L512.448 300 425.856 379.104C413.312 391.584 393.088 391.584 380.544 379.104zM896.32 812 127.68 812C75.008 812 32 768.608 32 715.552l0-831.04C32-168.8 74.688-212 127.68-212l768.64 0C948.992-212 992-168.608 992-115.488L992 715.552C992 768.8 949.312 812 896.32 812zM928-115.488C928-133.408 913.536-148 896.32-148L127.68-148C110.208-148 96-133.6 96-115.488L96 556c129.344-27.072 261.12-96 416-96 218.88 0 286.656 68.928 416 96L928-115.488zM928 620c-126.592-24.96-192.832-96-416-96C352.832 524 222.592 595.04 96 620L96 661.472 96 715.552C96 733.408 110.464 748 127.68 748l768.64 0C913.792 748 928 733.6 928 715.552L928 620z"  horiz-adv-x="1024" />

    
    <glyph glyph-name="icon099" unicode="&#58989;" d="M336.879-158.497c-2.601 0-5.204 0.514-7.712 1.542-7.502 3.116-12.432 10.465-12.432 18.602l0 858.334c0 11.132 9.013 20.145 20.145 20.145s20.145-9.013 20.145-20.145l-0-809.728 281.5 281.563h-108.977c-11.132 0-20.145 9.016-20.145 20.145 0 11.132 9.013 20.145 20.145 20.145h157.584c8.136 0 15.486-4.93 18.602-12.429 3.113-7.533 1.391-16.183-4.358-21.959l-350.252-350.317c-3.872-3.84-9.013-5.897-14.244-5.897z"  horiz-adv-x="1024" />

    
    <glyph glyph-name="kongbaiwu" unicode="&#58889;" d="M147.923516 578.255375l64.765049 0 0-30.558993-64.765049 0L147.923516 578.255375 147.923516 578.255375zM247.978303 578.255375l64.761979 0 0-30.558993-64.761979 0L247.978303 578.255375 247.978303 578.255375zM345.12997 578.255375l64.768119 0 0-30.558993-64.768119 0L345.12997 578.255375 345.12997 578.255375zM651.413702 105.41628c35.927257 0 68.75492 13.491269 93.705172 35.661198l121.892141-107.028619 17.252943 19.650549L763.002173 160.177488c18.563798 23.910573 29.638017 53.914934 29.638017 86.463234 0 77.870532-63.35084 141.222395-141.226488 141.222395-77.869508 0-141.220349-63.351863-141.220349-141.222395C510.193353 168.768143 573.544193 105.41628 651.413702 105.41628L651.413702 105.41628zM651.413702 361.712527c63.453171 0 115.073852-51.621704 115.073852-115.073852 0-63.448054-51.620681-115.068735-115.073852-115.068735-63.447031 0-115.069759 51.620681-115.069759 115.068735C536.343943 310.089799 587.966671 361.712527 651.413702 361.712527L651.413702 361.712527zM605.423251 172.615775l48.329728 49.629327 48.327682-49.629327 18.735713 18.243503-48.813752 50.129724 48.813752 50.127677-18.735713 18.24555-48.327682-49.630351-48.329728 49.630351-18.73776-18.24555 48.811706-50.127677-48.811706-50.129724L605.423251 172.615775zM61.41935 662.003777l0-721.94457 896.059096 0L957.478446 662.003777 61.41935 662.003777 61.41935 662.003777zM926.919453 485.565323 91.977319 485.565323 91.977319 631.444784l834.94111 0L926.918429 485.565323 926.919453 485.565323zM926.919453 455.005306l0-484.388129L91.977319-29.382822 91.977319 455.005306 926.919453 455.005306 926.919453 455.005306zM926.919453 455.005306M397.404544 276.735134c13.081946 0 22.545482 0.556679 30.617321 1.670036l0-20.318768c-6.958482 1.113357-16.143679 1.671059-30.338982 1.671059l-67.915809 0 0-106.883309c0-8.350179 3.340071-9.464559 29.503964-9.464559 36.46347 0 45.927005 1.11438 49.823755 6.402827 3.618411 4.730745 5.845125 20.317745 6.680143 44.534286 7.236821-4.175089 10.298554-5.565762 17.257036-6.957459-1.670036-25.329898-3.618411-37.298488-7.7935-46.483684-5.288446-11.968589-16.422018-14.474666-63.462381-14.474666-23.658839 0-36.462446 1.391696-43.421952 5.010107-4.731768 2.226714-6.401804 6.67912-6.401804 16.422018L311.952336 259.756437l-9.741875 0c-6.680143-32.565696-14.753005-53.163827-28.948309-73.761957-17.257036-25.606191-38.968523-43.420929-77.936023-64.018036-4.175089 6.958482-7.7935 11.410887-13.360286 16.422018 37.575804 15.865339 63.462381 36.46347 80.441077 64.296375 10.576893 17.258059 16.700357 33.401738 21.432125 57.0616l-61.791321 0c-11.69025 0-21.710464-0.557702-30.060643-1.671059L191.987081 278.404146c7.236821-1.113357 16.143679-1.670036 30.060643-1.670036l64.853054 0c3.061732 20.875446 3.618411 32.287357 4.175089 63.184041l-58.452273 0c-12.246929 0-21.432125-0.556679-30.338982-1.670036l0 20.318768c7.515161-1.113357 16.143679-1.670036 30.338982-1.670036L387.662669 356.896848c13.081946 0 22.823821 0.556679 30.895661 1.670036l0-20.318768c-7.515161 1.113357-15.865339 1.670036-30.617321 1.670036l-78.492702 0c-0.835018-32.565696-1.391696-42.307571-4.453429-63.184041L397.404544 276.73411z"  horiz-adv-x="1024" />

    
    <glyph glyph-name="baichengbaiwangshouyetubiao02" unicode="&#58884;" d="M512.053 768c-0.107 0-247.684 0.161-406.92-136.803 0 0 7.067-550.163 406.92-823.197 399.836 273.034 406.813 823.197 406.813 823.197-159.255 136.964-406.795 136.803-406.813 136.803v0zM750.434 512.445v0c-25.189 0.161-112.849-0.143-174.854 0.071 1.95-226.269-25.851-420.642-63.527-620.256-37.73 199.613-65.602 393.986-63.545 620.256-62.078-0.215-149.683 0.089-174.891-0.071-21.557-17.854-25.153-53.544-29.107-81.595l-76.551 159.47c116.069 0.143 229.848 0.34 344.092 0.268 114.19 0.071 227.933-0.126 344.020-0.268l-76.551-159.47c-3.989 28.051-7.585 63.742-29.089 81.595z"  horiz-adv-x="1024" />

    
    <glyph glyph-name="kongwujiaoxing" unicode="&#58925;" d="M231.867-40.559l99.624 315.315-254.598 217.709 320.431 0 114.726 293.376 128.642-293.376 306.415 0-240.135-217.563 102.703-316.753-296.031 198.443-281.777-197.151zM513.135 196.173l238.918-159.045-81.227 247.129 196.015 176.486-246.748 0-106.382 242.59-94.867-242.59-258.162 0 206.984-175.878-78.211-249.078 223.678 160.386z"  horiz-adv-x="1024" />

    
    <glyph glyph-name="zhuanrang" unicode="&#59022;" d="M511.94225 896C229.260499 896 0.064167 666.675334 0.064167 383.989305c0-282.797251 229.196332-511.989305 511.878083-511.989305 282.797251 0 511.993583 229.190628 511.993583 511.989305C1023.935833 666.675334 794.739501 896 511.94225 896L511.94225 896zM511.94225-47.10097c-238.075633 0-431.095979 192.997531-431.095979 431.088849 0 238.085615 193.020346 431.094553 431.095979 431.094553 238.091318 0 431.205776-193.008939 431.205776-431.094553C943.148026 145.896561 750.033568-47.10097 511.94225-47.10097L511.94225-47.10097zM511.94225-47.10097M767.953301 249.238392 351.952276 249.238392l89.678516-91.633473c15.718088-16.091683 15.718088-42.281842 0-58.35784-15.836441-16.091683-41.413448-16.091683-57.142943 0L232.07387 254.953542c-1.575659 1.581363-2.211626 3.53632-3.415116 5.253147-7.931054 7.419143-13.055866 17.774287-13.055866 29.471237 0 22.311614 18.046641 40.455219 40.338292 40.455219l512.01212 0c22.291651 0 40.443811-18.143605 40.443811-40.455219C808.397112 267.384848 790.243526 249.238392 767.953301 249.238392L767.953301 249.238392 767.953301 249.238392zM767.953301 249.238392M767.953301 437.851171 255.94118 437.851171c-22.291651 0-40.338292 18.157864-40.338292 40.455219 0 22.303059 18.046641 40.443811 40.338292 40.443811l414.418236 0-87.995912 87.98593c-15.835015 15.823607-15.835015 41.413448 0 57.137239 15.729496 15.840719 41.307928 15.840719 57.148647 0l152.441071-152.425386c0.735783-0.734357 0.97534-1.721104 1.709697-2.56098 8.762374-7.436254 14.732767-18.15929 14.732767-30.580615C808.397112 456.009035 790.243526 437.851171 767.953301 437.851171L767.953301 437.851171 767.953301 437.851171zM767.953301 437.851171"  horiz-adv-x="1024" />

    
    <glyph glyph-name="arrow-right" unicode="&#58881;" d="M325.048 802.489l-60.030-59.435 357.181-359.631-360.184-356.603 59.522-59.93 420.207 416.043z"  horiz-adv-x="1024" />

    
    <glyph glyph-name="bangbang" unicode="&#58939;" d="M889.136941 269.777539c1.473561 24.938995-5.098111 42.510186-11.600199 53.489238 8.233522 10.791787 17.704221 28.717042 18.23941 54.425563 1.427512 72.359005-65.940828 96.679923-102.95586 99.461269L679.762353 477.15361l-1.591241 0.106424c-4.583388 10.18292 2.547009 21.476127 2.477424 21.476127-0.022513 0-0.022513 0-0.047072-0.010233 1.544169 1.88186 37.461193 47.046502 61.638849 120.880091 26.797319 81.911568-41.949414 139.891074-44.89449 142.311193l-4.024663 2.431376c-2.664689 1.133823-26.608008 10.615779-49.267077-3.087315-17.304108-10.486842-27.804253-30.78412-31.17093-60.340273-7.809873-68.701708-63.860447-126.283148-90.027409-147.374512-3.647063-2.958378-6.593162-5.342682-8.604982-7.133468-19.056008-16.929578-37.97387-61.321624-52.284807-91.532693-9.587356-20.204158-35.869952-52.696176-49.40727-64.678068-9.18929-0.199545-27.429723-0.550539-39.588647-0.607844-4.629437 15.056927-18.192338 32.875758-34.32783 32.875758L165.60727 422.470173c-19.923772 0-36.139082-16.682961-36.139082-37.192064l0-345.081363c0-20.517289 16.21531-37.201274 36.139082-37.201274l173.035962 0c17.584494 0 32.269961 13.001105 35.449373 30.16502 6.221702 0.268106 11.904121 6.245238 15.154141 5.810333 4.489244-5.051039 14.636349-24.645306 39.423895-34.968419l2.945075-1.240247 3.133364 0c1.988284 0 116.310006-0.326435 219.944318-0.326435 52.331879 0 97.79021 0.093121 116.310006 0.326435 33.531698 0.467651 50.928926 15.584953 59.650565 28.200272 16.85897 24.413016 17.2335 52.193733 14.170744 68.782549 21.933545 20.75265 24.481577 58.167794 25.043373 73.705676 0.491187 13.900591-2.804882 23.779589-7.225565 33.788547C874.942661 218.709443 887.429043 241.20376 889.136941 269.777539zM342.129636 40.19777c0-1.976004-1.567705-3.587712-3.485381-3.587712L165.60727 36.610058c-1.918699 0-3.459798 1.611707-3.459798 3.587712L162.147472 385.279133c0 1.976004 1.542122 3.577478 3.459798 3.577478l173.035962 0c1.918699 0 3.485381-1.601474 3.485381-3.577478L342.128613 40.19777zM846.485539 338.126206l-16.182564-12.262278 14.82566-14.054087c0.561795-0.50142 13.025665-12.662391 11.387351-39.97341-1.846044-31.193443-22.424732-44.522006-22.659069-44.61615l-23.61586-10.149151 18.96391-17.314341c1.589195-1.837858 9.351995-11.506055 7.856945-27.593452-1.287319-13.725606-6.173606-41.693588-20.367887-52.869115l-18.565844-7.29515 12.978593-11.376095c3.297093-10.184967 3.858888-34.340109-7.086395-50.193169-6.359848-9.236362-17.304108-13.833053-33.437553-14.053064-51.9113-0.701988-300.150034-0.082888-332.511069 0-10.265808 4.465708-20.62576 9.972119-23.992437 12.767791-2.851954 5.238304-10.660804 24.714891-40.009226 23.756053L374.070092 355.991086c17.2335 0.116657 44.942585 0.738827 44.942585 0.738827l5.612834 0.116657 4.326539 3.647063c1.893116 1.564635 46.298466 45.74895 62.386886 79.643921 15.385409 32.455179 31.191396 69.214385 44.262086 80.83505 1.707898 1.520633 4.25593 3.566222 7.413853 6.127558 26.844392 21.629623 92.926436 87.302345 102.32448 169.915901 2.058892 18.156522 7.297197 30.315446 15.107069 35.17922 6.686283 4.126994 14.778588 2.689249 18.473747 1.684362 9.657964-8.990768 49.758264-50.402947 32.338522-103.543238-22.12081-67.600631-55.488779-109.785405-56.517201-111.13924-8.324596-11.973706-18.192338-38.689161-2.50096-62.879096 7.131421-10.988262 19.430538-13.782911 28.550243-12.767791l110.766756 0.048095c2.968611-0.24764 72.700789-6.665817 71.530127-65.215304C862.5494 350.942093 846.95319 338.500737 846.485539 338.126206z"  horiz-adv-x="1024" />

    
    <glyph glyph-name="shouji" unicode="&#58917;" d="M728.118989-114.749509 294.99432-114.749509c-47.854537 0-86.634178 38.779641-86.634178 86.637827L208.360142 794.903885c0 47.854537 38.779641 86.634178 86.634178 86.634178l433.181836 0c47.859402 0 86.634178-38.779641 86.634178-86.634178l0-823.014351C814.753167-75.969868 775.973526-114.749509 728.118989-114.749509L728.118989-114.749509zM771.464662 794.903885c0 23.899293-19.389212 43.288506-43.288506 43.288506L294.99432 838.192391c-23.899293 0-43.288506-19.389212-43.288506-43.288506l0-64.963166 519.816014 0 0 64.963166L771.464662 794.903885zM771.464662 686.590182 251.648648 686.590182l0-498.140137 519.816014 0L771.464662 686.590182 771.464662 686.590182zM771.464662 145.161539 251.648648 145.161539l0-173.272005c0-23.898077 19.389212-43.288506 43.288506-43.288506l433.181836 0c23.898077 0 43.288506 19.389212 43.288506 43.288506L771.407495 145.161539 771.464662 145.161539zM511.558479-28.110466c-35.909147 0-64.963166 29.111186-64.963166 64.963166 0 35.905498 29.111186 64.963166 64.963166 64.963166 35.848332 0 64.959517-29.116051 64.959517-64.963166C576.517996 0.999503 547.463977-28.110466 511.558479-28.110466L511.558479-28.110466zM511.558479-28.110466"  horiz-adv-x="1024" />

    
    <glyph glyph-name="icon" unicode="&#58903;" d="M1015.668241 358.951511 894.060579 237.344872c-6.573719-6.575766-15.245216-9.580193-23.854291-9.353019-8.608052-0.228197-17.280572 2.777253-23.854291 9.353019L693.632757 358.951511c-12.679787 12.694113-12.679787 33.267685 0 45.947472 12.694113 12.694113 33.268708 12.694113 45.961798 0l94.367251-75.145467c3.112897 17.597797 5.14723 35.576263 5.14723 54.085826 0 171.728176-139.235135 310.950008-310.980707 310.950008-99.986225 0-188.704826-47.372937-245.583255-120.695896l-48.542576 38.824237c68.281129 87.551008 174.508499 144.080489 294.125831 144.080489 206.090798 0 373.159862-167.067017 373.159862-373.158838 0-17.477047-1.518586-34.543747-3.963265-51.320852l72.395844 72.381517c12.69309 12.694113 33.269731 12.694113 45.946448 0C1028.362354 392.220219 1028.362354 371.645624 1015.668241 358.951511zM331.543022 362.747977c-12.679787-12.694113-33.252335-12.694113-45.946448 0l-65.047482 65.048505c-2.050706-14.394848-3.370771-29.016871-3.370771-43.958164 0-171.744549 139.219785-310.966381 310.950008-310.966381 93.002161 0 176.22356 41.027415 233.208413 105.724926l48.603975-38.885636c-68.417229-78.911234-169.163771-129.048121-281.813411-129.048121-206.074426 0-373.157815 167.083389-373.157815 373.175211 0 21.652136 2.641153 42.575678 6.30152 63.164598L55.470359 362.747977c-12.694113-12.694113-33.267685-12.694113-45.961798 0-12.678764 12.67774-12.678764 33.253358 0 45.947472L162.227802 530.302087c6.574742 6.575766 15.244192 9.581216 23.853267 9.353019 8.610098 0.228197 17.279548-2.777253 23.854291-9.353019l121.607662-121.606639C344.237135 396.001335 344.237135 375.425717 331.543022 362.747977z"  horiz-adv-x="1041" />

    
    <glyph glyph-name="suo" unicode="&#58906;" d="M884.48-93.687l-744.96 0 0 517.047 122.727 0 0 188.574c0 137.716 112.036 249.753 249.774 249.753 137.716 0 249.731-112.036 249.731-249.753l0-188.574 122.727 0 0-517.047zM183.156-50.051l657.709 0 0 429.774-657.709 0 0-429.774zM305.884 423.36l412.233 0 0 188.574c0 113.651-92.444 206.116-206.094 206.116-113.651 0-206.138-92.466-206.138-206.116l0-188.574z"  horiz-adv-x="1024" />

    
    <glyph glyph-name="duigou" unicode="&#58914;" d="M482.00404 12.282828c-98.650505 0-192.129293 38.917172-262.335354 108.347475C149.333333 190.965657 111.191919 283.668687 111.191919 382.965657c0 99.426263 38.917172 192.129293 108.347475 262.335354 70.206061 70.206061 162.909091 108.347475 262.335354 108.347475s192.129293-38.917172 262.335354-108.347475c70.206061-70.206061 108.347475-162.909091 108.347475-262.335354 0-99.426263-38.917172-192.129293-108.347475-262.335354C674.00404 50.424242 580.654545 12.282828 482.00404 12.282828L482.00404 12.282828zM482.00404 711.886869c-181.656566 0-329.69697-148.040404-329.69697-329.69697 0-181.656566 148.040404-329.69697 329.69697-329.69697s329.567677 148.040404 329.567677 329.69697C810.79596 563.975758 663.531313 711.886869 482.00404 711.886869L482.00404 711.886869zM482.00404 711.886869M691.2 526.480808c-7.49899 7.49899-19.393939 7.49899-26.117172 0L416.193939 277.591919l-118.044444 117.39798c-7.49899 7.49899-19.393939 7.49899-26.117172 0-7.49899-7.49899-7.49899-19.393939 0-26.117172l130.068687-130.068687c3.749495-3.749495 8.274747-5.171717 13.446465-5.171717l0.775758 0 0.775758 0c4.525253 0 9.69697 1.551515 13.446465 5.171717L691.975758 500.363636C698.69899 507.086869 698.69899 519.111111 691.2 526.480808L691.2 526.480808zM691.2 526.480808M788.428283 380.767677"  horiz-adv-x="1024" />

    
    <glyph glyph-name="cuowu" unicode="&#58902;" d="M918.795922 539.145313c-21.798121 51.476314-52.909055 97.631021-92.514092 137.236058-39.605037 39.605037-85.862083 70.818309-137.236058 92.514092C635.727364 791.409954 579.236458 802.871877 520.903458 802.871877s-114.823906-11.461923-168.142315-33.976414c-51.476314-21.798121-97.631021-52.909055-137.236058-92.514092s-70.818309-85.862083-92.514092-137.236058C100.496502 485.826904 89.034579 429.335998 89.034579 371.002998s11.461923-114.823906 33.976414-168.142315c21.798121-51.476314 52.909055-97.631021 92.514092-137.236058 39.605037-39.605037 85.862083-70.818309 137.236058-92.514092 53.21607-22.514491 109.809314-33.976414 168.142315-33.976414s114.823906 11.461923 168.142315 33.976414c51.476314 21.798121 97.631021 52.909055 137.236058 92.514092 39.605037 39.605037 70.818309 85.862083 92.514092 137.236058 22.514491 53.21607 33.976414 109.809314 33.976414 168.142315S941.310414 485.826904 918.795922 539.145313zM520.903458-15.836898c-213.273636 0-386.839896 173.56626-386.839896 386.839896s173.56626 386.839896 386.839896 386.839896 386.839896-173.56626 386.839896-386.839896S734.177094-15.836898 520.903458-15.836898zM545.055367 368.444533l105.204078 105.204078c8.801119 8.801119 8.801119 23.128523 0 31.827304l0 0c-8.801119 8.801119-23.128523 8.801119-31.827304 0L513.228063 400.271837 407.512293 505.885269c-8.801119 8.801119-23.128523 8.801119-31.827304 0l0 0c-8.801119-8.801119-8.801119-23.128523 0-31.827304l105.613432-105.613432L375.173296 262.319408c-8.801119-8.801119-8.801119-23.128523 0-31.827304 8.801119-8.801119 23.128523-8.801119 31.827304 0l106.125125 106.125125 105.613432-105.613432c8.801119-8.801119 23.128523-8.801119 31.827304 0 8.801119 8.801119 8.801119 23.128523 0 31.827304L545.055367 368.444533z"  horiz-adv-x="1024" />

    
    <glyph glyph-name="ai64" unicode="&#59062;" d="M885.942179 468.312244l-267.445168 22.933315-104.470353 246.470461L409.553235 491.24556l-267.336698-22.933315 202.846918-175.770236-60.789505-261.34524 229.753731 138.569986 229.859132-138.569986-60.785411 261.34524L885.942179 468.312244zM514.026658 239.596146l-139.875724-84.425831 37.038568 159.160953-123.591853 106.975407 162.91751 14.053064 63.511499 150.116973 63.620993-150.116973 162.860205-14.053064-123.534548-106.975407 37.038568-159.160953L514.026658 239.596146z"  horiz-adv-x="1024" />

    
    <glyph glyph-name="weixin" unicode="&#58891;" d="M863.206 341.508c0 86.172-89.498 156.025-200.098 156.025-110.497 0-200.098-69.853-200.098-156.025 0-85.652 88.563-155.089 198.228-155.92 47.712-80.248 91.473-64.863 91.473-64.863s-34.095 22.66-37.629 70.164c85.342 17.878 148.125 78.479 148.125 150.619zM596.582 365.831c-12.89 0-23.388 10.499-23.388 23.388 0 12.89 10.499 23.388 23.388 23.388 12.89 0 23.388-10.498 23.388-23.388 0-12.889-10.498-23.388-23.388-23.388zM724.748 365.831c-12.993 0-23.388 10.499-23.388 23.388 0 12.89 10.395 23.388 23.388 23.388 12.89 0 23.284-10.498 23.284-23.388 0-12.889-10.394-23.388-23.284-23.388zM638.786 524.767c-33.576 73.699-124.529 126.608-231.595 126.608-135.652 0-245.627-84.925-245.627-189.599 0-89.706 80.768-164.86 189.184-184.506-2.079-62.056-46.568-91.681-46.568-91.681s56.131-19.854 116.317 86.588c0 0-0.312 0.103-0.831 0.208 11.329 0.52 22.557 1.56 33.47 3.118-14.552 23.077-22.764 48.959-22.764 76.402-0.002 92.096 92.097 167.354 208.414 172.863zM333.908 493.478c-17.152 0-30.977 13.825-30.977 30.871 0 17.152 13.825 30.977 30.977 30.977 17.047 0 30.871-13.825 30.871-30.977 0.001-17.045-13.823-30.871-30.871-30.871zM458.853 524.351c0 17.152 13.825 30.977 30.977 30.977 17.047 0 30.871-13.825 30.871-30.977 0-17.047-13.824-30.871-30.871-30.871-17.152-0.001-30.977 13.825-30.977 30.871zM512 831.949c60.496 0 119.154-11.837 174.346-35.181 53.336-22.559 101.246-54.865 142.401-96.020s73.461-89.067 96.020-142.401c23.345-55.192 35.181-113.851 35.181-174.346 0-60.495-11.837-119.154-35.181-174.346-22.559-53.335-54.865-101.246-96.020-142.401s-89.067-73.461-142.401-96.020c-55.192-23.345-113.851-35.181-174.346-35.181s-119.154 11.837-174.346 35.181c-53.336 22.559-101.246 54.865-142.401 96.020s-73.461 89.067-96.020 142.401c-23.345 55.192-35.181 113.851-35.181 174.346 0 60.496 11.837 119.154 35.181 174.346 22.559 53.336 54.865 101.246 96.020 142.401s89.067 73.461 142.401 96.020c55.192 23.345 113.85 35.181 174.346 35.181M512 883.115c-275.653 0-499.115-223.461-499.115-499.115s223.461-499.115 499.115-499.115 499.115 223.461 499.115 499.115-223.461 499.115-499.115 499.115z"  horiz-adv-x="1024" />

    
    <glyph glyph-name="pingtai" unicode="&#58981;" d="M352.128 416h-192c-52.928 0-96 43.072-96 96V704c0 52.928 43.072 96 96 96h192c52.928 0 96-43.072 96-96v-192c0-52.928-43.072-96-96-96z m-192 320c-17.664 0-32-14.4-32-32v-192c0-17.6 14.336-32 32-32h192c17.664 0 32 14.4 32 32V704c0 17.6-14.336 32-32 32h-192zM352-64H160c-52.928 0-96 43.072-96 96V224c0 52.928 43.072 96 96 96h192c52.928 0 96-43.072 96-96v-192c0-52.928-43.072-96-96-96zM160 256c-17.664 0-32-14.4-32-32v-192c0-17.6 14.336-32 32-32h192c17.664 0 32 14.4 32 32V224c0 17.6-14.336 32-32 32H160zM832-64H640c-52.928 0-96 43.072-96 96V224c0 52.928 43.072 96 96 96h192c52.928 0 96-43.072 96-96v-192c0-52.928-43.072-96-96-96zM640 256c-17.6 0-32-14.4-32-32v-192c0-17.6 14.4-32 32-32h192c17.6 0 32 14.4 32 32V224c0 17.6-14.4 32-32 32H640zM736 384a32.142 32.142 0 0 0-22.656 9.344l-192 192c-12.48 12.48-12.48 32.768 0 45.248l192 192c12.48 12.48 32.768 12.48 45.248 0l192-192c12.48-12.48 12.48-32.768 0-45.248l-192-192C752.384 387.136 744.192 384 736 384zM589.248 608L736 461.248 882.752 608 736 754.752 589.248 608z"  horiz-adv-x="1024" />

    
    <glyph glyph-name="quan" unicode="&#58632;" d="M908.983 479.715c10.477 0 18.73 8.571 18.73 19.049v92.063c0 40-32.38 72.381-72.381 72.381h-684.127c-40 0-72.381-32.38-72.381-72.381v-92.063c0-10.159 8.254-18.73 18.413-19.047 51.111-0.953 92.698-43.492 92.698-94.603 0-51.111-41.588-93.651-92.698-94.603-10.159-0.317-18.413-8.571-18.413-19.049v-92.063c0-40 32.38-72.381 72.381-72.381h684.444c40 0 72.381 32.38 72.381 72.381v92.063c0 10.477-8.571 19.049-18.73 19.049-52.064 0-94.285 42.54-94.285 94.603-0.317 52.064 41.904 94.603 93.968 94.603zM776.921 385.111c0-66.35 49.207-121.587 113.333-131.111v-74.603c0-19.047-15.556-34.603-34.603-34.603h-684.444c-19.047 0-34.603 15.556-34.603 34.603v74.921c62.857 10.159 111.428 65.397 111.428 130.793s-48.571 120.318-111.428 130.793v74.921c0 19.047 15.556 34.603 34.603 34.603h684.444c19.047 0 34.603-15.556 34.603-34.603v-74.603c-64.127-9.524-113.333-64.763-113.333-131.111zM682.317 421.301c-0.951 7.619-5.079 11.746-12.698 12.698h-180c5.715 11.111 10.793 21.905 15.556 32.38h151.746c6.667 0 10.159 4.128 11.111 12.698-0.951 8.571-5.079 13.015-12.698 13.969h-66.031c3.809 7.619 8.889 20.635 15.556 39.366 0.953 1.905 1.905 3.174 2.858 4.128 2.858 8.571 0.317 14.603-6.983 18.413-8.571 2.858-13.969 0-16.826-8.572-11.111-25.397-19.682-43.175-25.397-53.332h-46.349c5.715 19.682 9.206 37.143 11.111 52.064 0 8.572-3.809 13.969-11.111 16.826-8.572 0.951-13.651-2.222-15.556-9.841-1.905-12.064-5.715-31.747-11.111-59.047h-36.508c0.953 2.858 0.953 6.983 0 12.698-9.524 20.635-16.508 35.238-20.953 43.492-5.715 7.619-12.698 9.206-20.951 5.715-7.619-5.715-8.889-12.064-4.127-19.682 6.667-9.524 13.651-23.492 20.951-42.223h-45.079c-7.619-0.953-11.746-5.715-12.698-13.969 0.951-8.571 5.079-12.698 12.698-12.698h96.826c-7.619-14.919-13.651-25.714-18.413-32.38h-98.413c-8.572-0.953-13.015-5.079-13.969-12.698 0.953-8.572 5.715-12.698 13.969-12.698h74.603c-18.73-15.873-45.397-30.793-80-45.079-8.571-4.762-10.159-11.111-5.715-19.682 3.809-5.715 10.793-6.667 20.953-2.858 12.064 5.715 23.81 11.111 35.238 16.826-3.809-11.111 0-17.46 11.111-18.413h47.619c-2.858-46.983-29.842-78.729-81.587-95.556-8.571-0.953-11.746-5.079-9.841-12.698 3.809-10.159 9.206-14.919 16.826-13.969 63.809 18.73 98.73 59.365 105.397 122.223l101.271-1.27c10.159 0 15.556-5.715 15.556-16.825-0.953-3.809-1.27-7.619-1.27-11.111-1.905-22.539-3.809-37.143-5.715-43.492-2.858-22.539-28.571-23.492-77.142-2.858-9.524 0.953-16.508-1.27-20.953-6.983-3.809-7.619-1.27-13.651 6.983-18.413 59.047-28.254 98.413-22.857 118.095 15.556 2.858 8.572 5.079 26.667 6.983 54.921 0.951 8.571 1.905 16.826 2.857 25.397 1.905 21.588-7.937 31.746-29.524 30.793h-195.238c19.682 10.159 38.412 24.762 56.19 43.492h101.271c17.778-21.588 47.619-42.223 89.841-61.905 8.572-4.762 14.603-3.174 18.413 4.127 2.858 8.572 0.317 14.921-6.983 19.682-28.254 11.111-49.523 23.81-64.762 38.095h61.905c6.35 0 10.159 4.127 11.111 12.698z"  horiz-adv-x="1024" />

    
    <glyph glyph-name="zijin" unicode="&#58968;" d="M636.928 627.712c-169.472 0-307.2-136.704-307.2-305.152 0-168.448 137.216-305.152 307.2-305.152s307.2 136.704 307.2 305.152c-0.512 168.448-137.728 305.152-307.2 305.152z m107.008-372.224c-3.072-1.536-6.656-2.048-9.728-2.048h-77.312v-78.848c0-8.192-4.096-14.336-11.776-18.432-7.168-3.072-14.336-2.048-20.992 3.072-5.12 4.608-7.168 9.728-7.168 16.384v77.824H537.6c-8.192 0-15.872 5.12-18.432 13.312-3.072 7.68-0.512 16.384 5.632 21.504 4.096 3.584 8.704 4.608 13.824 4.608h72.704c1.536-0.512 3.072-0.512 4.608-0.512v39.936h-77.312c-13.312 0-22.016 9.728-20.992 22.016 1.024 10.24 9.728 17.408 20.992 17.408h69.632c-1.536 1.536-2.56 2.56-3.072 3.584L524.8 455.68c-7.168 7.168-8.704 16.896-4.096 25.088 6.144 10.24 19.456 12.8 28.672 5.632 1.536-1.024 3.072-2.56 4.608-4.096l78.848-78.848c1.024-1.024 1.536-2.56 2.048-4.096 0.512 0 1.024 0.512 2.048 0.512 0.512 1.024 2.048 2.56 3.072 3.584 26.624 26.624 53.248 53.248 79.872 80.384 5.632 5.632 12.288 8.192 19.968 6.144 14.848-3.584 19.456-22.016 8.704-33.28-8.192-8.192-15.872-16.384-24.576-24.576l-56.32-56.32c-1.024-1.024-2.56-2.048-3.584-2.56l0.512-1.536h68.608c10.752 0 18.432-6.144 20.992-15.872 2.048-10.752-5.12-21.504-15.872-23.04-2.048-0.512-4.608-0.512-6.656-0.512H655.36v-39.936h79.36c9.728 0 16.896-6.656 18.944-15.872 3.072-8.192-1.536-17.408-9.728-20.992zM182.784 365.568c-7.68 0-13.824-6.144-13.824-13.824v-37.888c0-7.68 6.144-13.824 13.824-13.824h90.624c0 4.608-0.512 9.216-0.512 13.824 0 16.896 1.536 34.304 4.096 52.224H182.784zM187.904 617.984v-37.888c0-7.68 6.144-13.824 13.824-13.824h172.544c25.088 25.6 53.76 48.128 84.992 66.048H201.728c-7.68 0-13.824-6.656-13.824-14.336zM144.384 699.392h419.328c7.68 0 13.824 6.144 13.824 13.824v37.888c0 7.68-6.144 13.824-13.824 13.824H144.384c-7.68 0-13.824-6.144-13.824-13.824v-37.888c0-7.68 6.144-13.824 13.824-13.824zM73.216 484.864v-37.888c0-7.68 6.144-13.824 13.824-13.824h205.312c7.68 23.04 17.92 45.056 30.72 66.048h-235.52c-7.68-0.512-14.336-6.656-14.336-14.336zM125.44 231.936c-7.68 0-13.824-6.144-13.824-13.824v-37.888c0-7.68 6.144-13.824 13.824-13.824h178.688c-9.216 21.504-16.896 43.52-22.016 66.048H125.44z"  horiz-adv-x="1024" />

    
    <glyph glyph-name="cunruzijin" unicode="&#58882;" d="M916.210526 707.368421H754.526316a26.947368 26.947368 0 1 1 0-53.894737h161.68421c6.736842 0 26.947368-19.132632 26.947369-53.894737v-619.789473c0-34.762105-20.210526-53.894737-26.947369-53.894737H107.789474c-6.736842 0-26.947368 19.132632-26.947369 53.894737V599.578947c0 34.762105 20.210526 53.894737 26.947369 53.894737h161.68421a26.947368 26.947368 0 0 1 0 53.894737H107.789474c-43.789474 0-80.842105-49.313684-80.842106-107.789474v-619.789473c0-58.475789 37.052632-107.789474 80.842106-107.789474h808.421052c43.789474 0 80.842105 49.313684 80.842106 107.789474V599.578947c0 58.475789-37.052632 107.789474-80.842106 107.789474zM304.370526 338.054737l188.631579-188.631579a26.947368 26.947368 0 0 1 38.130527 0l188.631579 188.631579a26.947368 26.947368 0 0 1-38.130527 38.130526L538.947368 233.498947V869.052632a26.947368 26.947368 0 0 1-53.894736 0v-635.553685L342.366316 376.050526a26.947368 26.947368 0 0 1-38.130527-38.130526z"  horiz-adv-x="1024" />

    
    <glyph glyph-name="zhuanchu" unicode="&#58635;" d="M763.8 547.8c5.2 6 7.7 13.5 7.7 20.9 0 8.6-3.4 17.2-10.1 23.4l-229 212.2c-0.3 0.3-0.7 0.5-1 0.8-0.9 0.8-1.8 1.4-2.8 2.1-0.8 0.5-1.5 1-2.3 1.4-1 0.5-1.9 1-2.9 1.4-0.8 0.4-1.7 0.7-2.6 1-1 0.3-2 0.5-2.9 0.7-0.9 0.2-1.9 0.3-2.8 0.4-1 0.1-1.9 0.1-2.9 0.1s-1.9 0-2.9-0.1c-0.9-0.1-1.9-0.3-2.8-0.4-1-0.2-2-0.4-2.9-0.7-0.9-0.3-1.8-0.6-2.6-1-1-0.4-1.9-0.8-2.8-1.4-0.8-0.4-1.6-0.9-2.4-1.5-0.9-0.6-1.8-1.3-2.6-2-0.4-0.3-0.7-0.5-1.1-0.8l-229-212.2c-12.4-11.6-13.5-31.4-2.4-44.3 11.2-12.9 30.3-14 42.8-2.5L482 710.7v-508.2c0-17.3 13.6-31.4 30.3-31.4 16.7 0 30.3 14.1 30.3 31.4V710.7L721 545.3c12.5-11.6 31.6-10.4 42.8 2.5zM874.2 470.3c-17.5 0-31.6-14.1-31.6-31.5s14.2-31.5 31.6-31.5c12.6 0 22.9-10.2 22.9-22.8l-0.1-336.7c0-12.6-10.3-22.8-22.9-22.8-1.4 0-2.6-0.2-3.9-0.4H154.6c-1.4 0.2-2.8 0.4-4.2 0.4-12.6 0-22.9 10.2-22.9 22.8l0.1 336.7c0 12.6 10.3 22.8 22.9 22.8 17.5 0 31.6 14.1 31.6 31.5s-14.2 31.5-31.6 31.5c-47.5 0-86.2-38.5-86.2-85.8l-0.1-336.7c0-44.9 34.9-81.8 79.1-85.4 2.2-0.5 4.5-0.8 6.8-0.8h723.8c2.3 0 4.5 0.3 6.7 0.7 44.4 3.4 79.6 40.4 79.6 85.4l0.1 336.7c0.1 47.4-38.6 85.9-86.1 85.9z"  horiz-adv-x="1024" />

    
    <glyph glyph-name="women" unicode="&#58918;" d="M874.091 275.08c-31.38 45.247-73.707 79.303-122.967 98.886 21.771 15.325 40.016 35.637 53.152 59.476 15.325 27.489 23.353 58.99 23.353 90.858 0 99.614-77.114 180.741-171.985 180.741-13.5 0-24.447-10.946-24.447-24.447s10.946-24.448 24.447-24.448c67.87 0 123.09-59.112 123.09-131.846 0-72.735-55.22-131.847-123.09-131.847-13.5 0-24.447-10.946-24.447-24.447v-0.122c0-13.5 10.946-24.447 24.447-24.447 122.116 0 221.366-105.94 221.366-236.084 0-13.5 10.947-24.447 24.448-24.447 13.5 0 24.447 10.946 24.447 24.447 0.122 60.694-17.88 118.71-51.814 167.728z m-252.503 41.476c-25.664 18.123-53.517 32.475-83.073 42.692 62.274 37.827 100.588 105.21 100.588 178.431 0 115.183-93.655 208.838-208.838 208.838-115.184 0-208.839-93.655-208.839-208.838 0-39.165 10.947-77.478 31.746-110.561 17.514-27.975 41.476-51.45 69.694-68.478a327.742 327.742 0 0 1-84.411-43.178c-28.34-20.07-53.274-44.395-74.194-72.127-43.3-57.652-66.167-126.495-66.167-198.743 0-13.5 10.947-24.447 24.448-24.447 13.5 0 24.447 10.947 24.447 24.447 0 75.41 29.435 146.32 82.708 199.96 53.274 53.395 123.698 82.951 198.378 82.951 2.433-0.243 4.987 0 7.42 0.487l1.946 0.486c72.734-1.46 141.09-30.772 193.026-82.951 53.395-53.517 82.708-124.55 82.708-199.96 0-13.5 10.947-24.447 24.448-24.447 13.5 0 24.447 10.947 24.447 24.448 0 72.248-22.866 140.968-66.288 198.742-20.799 27.854-45.854 52.18-74.194 72.248zM430.386 697.622c88.182 0 159.943-71.761 159.943-159.943 0-88.181-71.761-159.943-159.943-159.943-88.181 0-159.943 71.762-159.943 159.943 0 88.182 71.762 159.943 159.943 159.943z m0 0"  horiz-adv-x="1024" />

    
    <glyph glyph-name="lihe" unicode="&#59037;" d="M716.288 515.072h-17.92c9.216 15.36 12.8 29.696 11.776 43.52-1.024 11.264-6.656 27.648-26.112 40.448-16.384 10.752-37.376 13.312-60.416 7.68-37.888-9.216-82.432-41.984-111.616-81.408-29.184 39.424-73.728 71.68-111.616 81.408-23.04 5.632-44.032 3.072-60.416-7.68-19.456-12.8-25.088-29.184-26.112-40.448-1.024-13.312 2.56-28.16 11.776-43.52h-17.92c-27.136 0-48.64-22.016-48.64-48.64v-62.976c0-21.504 13.824-39.936 34.304-46.592-2.048-5.12-3.072-10.752-3.072-16.384v-188.928c0-27.136 22.016-48.64 48.64-48.64h345.6c27.136 0 48.64 22.016 48.64 48.64v188.928c0 5.632-1.024 11.264-3.072 16.384 20.48 6.144 34.304 25.088 34.304 46.592v62.976c1.024 26.624-20.992 48.64-48.128 48.64m-31.232-377.856h-155.648v217.088h155.648c7.68 0 13.824-6.144 13.824-13.824v-188.928c0-8.192-6.144-14.336-13.824-14.336m-136.704 377.856c24.576 28.672 57.344 51.2 83.456 57.344 13.824 3.584 25.088 2.56 32.768-3.072 8.704-5.632 10.24-10.752 10.752-14.336 1.536-13.824-13.824-32.768-20.48-39.936h-106.496z m182.272-49.152v-62.976c0-7.68-6.144-13.824-13.824-13.824h-186.88v91.136H716.8c7.168 0 13.824-6.656 13.824-14.336m-236.032-111.616v-217.088h-155.648c-7.68 0-13.824 6.144-13.824 13.824v188.928c0 7.68 6.144 13.824 13.824 13.824l155.648 0.512z m-146.432 200.704c0.512 3.584 2.048 8.704 10.24 14.336 8.192 5.12 19.456 6.144 33.28 3.072 26.112-6.656 58.88-29.184 83.456-57.344H368.64c-6.144 6.144-21.504 25.6-20.48 39.936m-54.784-89.088c0 7.68 6.144 13.824 13.824 13.824h186.88V388.608H307.2c-7.68 0-13.824 6.144-13.824 13.824v63.488z"  horiz-adv-x="1024" />

    
    <glyph glyph-name="god2" unicode="&#58898;" d="M825.744 362.67c-0.119-7.234-0.197-13.521-0.197-18.285 0-151.070-140.514-273.971-313.23-273.971-172.696 0-313.21 122.9-313.21 273.971 0 0-0.85 100.462-0.85 71.185 0 155.498 140.791 282.016 313.824 282.016 166.271 0 302.377-116.91 312.793-264.006 0.315-21.627 0.772-33.389 0.87-70.91zM512.316 104.357c118.67 0 220.002 64.148 260.27 154.172-56.398-75.316-152.115-124.994-260.506-124.994-107.64 0-202.745 49.006-259.302 123.434 40.782-89.274 141.621-152.612 259.538-152.612zM791.604 417.33c-1.088 135.967-126.002 246.313-279.523 246.313-154.194 0-279.625-111.276-279.625-248.073 0-136.796 125.431-248.093 279.625-248.093 153.975 0 279.268 111 279.604 247.54-0.021 0.79-0.062 1.522-0.081 2.313zM513.66 592.378c-115.565 0-209.564-80.654-209.564-179.792 0-2.926 0.080-5.832 0.237-8.718 0.514-9.351-6.701-17.356-16.131-17.871-0.336-0.020-0.633-0.020-0.949-0.020-9.014 0-16.565 6.998-17.060 16.052-0.176 3.202-0.277 6.949-0.277 10.72 0 117.695 109.339 213.552 243.743 213.552 9.43 0 17.080-7.591 17.080-16.961 0.001-9.371-7.649-16.962-17.079-16.962zM623.394 532.062l-81.532-138.702h64.244v-30.648h-74.853v-42.239h74.853v-31.041h-74.853v-61.492h-38.507v61.492h-77.602v31.041h77.602v42.239h-77.602v30.648h66.207l-80.745 138.702h43.418c37.72-68.894 60.639-112.572 68.761-131.040h0.786c2.751 7.595 10.28 22.919 22.593 45.972l46.169 85.068h41.061z"  horiz-adv-x="1024" />

    
    <glyph glyph-name="wenhao" unicode="&#58625;" d="M948.587 384c0 241.067-195.413 436.587-436.587 436.587s-436.587-195.413-436.587-436.587c0-241.173 195.413-436.587 436.587-436.587 98.987 0 189.653 33.707 262.827 89.173 2.987 3.413 5.013 7.787 5.013 12.693 0 10.667-8.64 19.307-19.307 19.307-5.547 0-10.453-2.24-13.973-5.973h-0.32c-65.493-48.213-146.24-77.12-233.813-77.12-218.347 0-395.413 177.067-395.413 395.413 0 218.347 177.067 395.413 395.413 395.413 218.347 0 395.413-176.96 395.413-395.413 0-66.667-15.68-129.493-44.8-184.64v-0.32c-0.533-1.813-1.173-3.627-1.173-5.653 0-10.667 8.64-19.307 19.307-19.307 8.32 0 15.253 5.333 18.027 12.693v-0.107c31.040 60.16 49.387 128.107 49.387 200.427zM462.080 161.173c0 0 0 0 0 0 0-19.028 15.425-34.453 34.453-34.453 19.028 0 34.453 15.425 34.453 34.453 0 0 0 0 0 0 0 19.028-15.425 34.453-34.453 34.453-19.028 0-34.453-15.425-34.453-34.453zM580.16 379.093c42.987 21.653 96.427 48.64 96.427 121.707 0 83.307-71.787 141.44-174.613 141.44-74.773 0-140.693-42.88-164.053-106.773-5.333-14.72-10.027-39.147-5.44-59.627 2.773-12.373 15.147-20.16 27.413-17.387 12.373 2.773 20.16 15.040 17.387 27.413-1.813 8.32-0.32 22.933 3.733 33.92 13.867 38.080 56.64 76.48 120.853 76.48 75.733 0 128.64-39.253 128.64-95.467 0-42.667-26.987-58.453-71.147-80.747-38.4-19.413-86.187-43.52-86.187-103.147v-56.853c0-12.693 10.24-23.040 22.933-23.040s22.933 10.347 22.933 23.040v56.853c0.107 29.973 22.187 42.56 61.12 62.187z"  horiz-adv-x="1024" />

    
    <glyph glyph-name="cloud-protect" unicode="&#59135;" d="M550.774 767.2570000000001v26.071c0 21.359-17.315 38.674-38.674 38.674-21.359 0-38.674-17.315-38.674-38.674v-26.071c-203.166-19.525-362.57-191.147-362.57-399.344a38.674 38.674 0 0 1 38.674-38.674h323.896V126.20000000000005c0-0.454 0.053-0.89 0.067-1.334-0.014-0.45-0.067-0.885-0.067-1.335 0-46.511-36.866-84.348-82.183-84.348-45.317 0-82.183 37.837-82.183 84.344 0 21.359-17.315 38.674-38.674 38.674s-38.674-17.315-38.674-38.674c0-89.159 71.566-161.692 159.531-161.692s159.531 72.533 159.531 161.692c0 0.454-0.053 0.89-0.067 1.334 0.014 0.45 0.067 0.885 0.067 1.335V329.23400000000004H874.67a38.672 38.672 0 0 1 38.674 38.674c0 208.202-159.406 379.824-362.57 399.349z m-38.675-75.448c165.502 0 302.321-124.801 321.508-285.222H190.591c19.187 160.421 156.007 285.222 321.508 285.222z"  horiz-adv-x="1024" />

    
    <glyph glyph-name="suo1" unicode="&#59603;" d="M512 128c-17.664 0-32 14.304-32 32v96c0 17.696 14.336 32 32 32s32-14.304 32-32v-96c0-17.696-14.336-32-32-32zM832-64H192c-52.928 0-96 43.072-96 96V384c0 52.928 43.072 96 96 96h640c52.928 0 96-43.072 96-96v-352c0-52.928-43.072-96-96-96zM192 416c-17.632 0-32-14.368-32-32v-352c0-17.664 14.368-32 32-32h640c17.664 0 32 14.336 32 32V384c0 17.632-14.336 32-32 32H192zM736 416c-17.696 0-32 14.336-32 32V577.984C704 686.752 601.76 768 510.336 768 416.768 768 320 697.088 320 578.432V448c0-17.664-14.336-32-32-32s-32 14.336-32 32V578.432C256 737.152 385.312 832 510.336 832 632.224 832 768 727.68 768 577.984V448c0-17.664-14.304-32-32-32z"  horiz-adv-x="1024" />

    
    <glyph glyph-name="gantanhao" unicode="&#58890;" d="M512 823.978667c59.392 0 116.992-11.562667 171.221333-34.474667 52.394667-22.186667 99.413333-53.888 139.861334-94.293333 40.405333-40.405333 72.234667-87.509333 94.293333-139.946667 23.04-54.272 34.602667-111.872 34.602667-171.264 0-59.392-11.562667-116.992-34.474667-171.221333a440.448 440.448 0 0 0-94.293333-139.861334 437.717333 437.717333 0 0 0-139.946667-94.293333c-54.272-23.04-111.872-34.602667-171.264-34.602667-59.392 0-116.992 11.562667-171.221333 34.474667a440.448 440.448 0 0 0-139.861334 94.293333 437.717333 437.717333 0 0 0-94.293333 139.946667A436.608 436.608 0 0 0 71.936 384c0 59.392 11.605333 116.992 34.56 171.221333a440.448 440.448 0 0 0 94.293333 139.861334 437.717333 437.717333 0 0 0 139.861334 94.293333c54.314667 23.04 111.914667 34.645333 171.306666 34.645333zM512 896C229.205333 896 0 666.794667 0 384s229.205333-512 512-512 512 229.205333 512 512S794.794667 896 512 896z m0-640a39.978667 39.978667 0 0 0-40.021333 40.021333V664.96a39.978667 39.978667 0 1 0 80.042666 0v-369.024c0-22.058667-17.92-39.978667-40.021333-39.978667z m-45.013333-109.013333a45.013333 45.013333 0 1 0 90.026666 0 45.013333 45.013333 0 0 0-90.026666 0z"  horiz-adv-x="1024" />

    
    <glyph glyph-name="xiaozhu1" unicode="&#58626;" d="M450.7604448 608.111152c-27.26306027 21.17670827-45.10406293 53.6528992-45.10406293 90.5585056 0 63.8892352 52.51443733 115.68763093 117.2845344 115.68763093 64.76900587 0 117.2845344-51.80057813 117.2845344-115.68763093 0-38.27001493-19.07006187-71.9414272-48.11012694-93.00243307 14.99757547-2.18414507 29.45921173-5.174928 43.61849494-8.56848426 24.85078613 26.8122592 40.1354336 62.40912533 40.1354336 101.59929706 0 83.31295147-68.46709867 150.83806293-152.9272448 150.83806294-84.44595627 0-152.91414613-67.52620267-152.91414614-150.83806294 0-36.35765973 13.0470176-69.71143893 34.77603734-95.76181226C419.45437013 604.87586773 434.99880107 606.6441408000001 450.7604448 608.111152zM984.512592 325.32498667000004c-26.6703616-37.42189867-78.8693472-43.5901152-79.76330667-33.99996267C889.14591253 460.17764267 731.36137387 582.10443947 512.0463904 582.10443947c-65.34642347 0-151.19389973-14.63518933-179.5681344-19.8264896-14.00101227 12.3637216-45.94453867 36.08586987-84.9240448 36.08586986-12.90075307 0-25.49915307-2.5880096-38.63240107-8.25194133-18.55267733-9.518112-31.2809696-27.87649813-34.92121066-50.40560747-3.23637653-20.05461867 1.14173653-40.5840512 11.8910912-57.67844906-50.65338347-46.53723733-91.5539776-94.2686048-98.15662187-174.28732907-2.34023253-5.93790507-3.0912032-5.93790507-10.05514347-5.98047467-9.260512-0.05894293-24.76346453-0.14408107-37.24616213-16.12948906-12.8439936-16.5344448-30.57038613-109.6372992-2.00840853-147.73485227l2.48431466-2.68842987c22.7987168-20.2128896 45.8135552-20.8743552 64.32148054-21.39392106 19.48920747-0.57523413 33.59064-0.97691627 50.32046826-19.03404054 16.98961173-21.2913184 36.1480864-33.45419947 56.44720747-46.33421333 4.75359787-3.02025387 9.6359968-6.10927467 14.63518933-9.41769173-0.17355307-0.44315947-0.34710507-0.88959467-0.52065813-1.33493654-6.0525152-15.58372587-16.1818816-41.66247893-6.12564693-75.6209632l1.1428288-2.88927146c10.92181547-21.92549547 53.0656576-25.20116693 77.20695146-25.20116694 11.96313173 0 34.15495893 0.9190656 48.31205974 7.1025632l2.65786773 1.2934592c1.53250347-8.43968427 4.66845973-16.57810667 10.93709653-22.97445226 4.5232864-4.61497493 12.45322667-10.062784 26.15079467-10.62382827 6.0099456-0.9627264 14.5336768-1.4233504 26.627792-1.4233504 12.20872533 0 26.93014507 0.47590613 41.89824853 0.99219733l4.694656 0.7913568c18.42060267 5.57660907 22.8423776 24.74163413 24.64776214 39.44886294 11.3562432-0.73023147 22.8554752-1.0904352 34.35580053-1.0904352 42.62193067 0 70.08692373 1.45063893 102.68099947 9.1426272-2.60219947-10.88361173-4.50909653-22.70047893 1.9341856-32.96628694 3.79851307-6.0525152 9.7222272-10.12063467 17.13478506-11.75901653l6.02522667-1.32293013 3.2069056 1.4648288c3.8716448 0 9.56395627-0.43006187 16.19716373-0.90378454 10.14246507-0.7051264 22.75287253-1.61000213 34.9168448-1.61000213 26.830816 0 43.15787093 4.48399147 52.47514134 14.50529707 18.4053216 16.60321173 17.72639253 47.11138027 17.10531306 74.09610133-0.23140373 10.34985493-0.5763264 25.64760107 1.20067947 31.24167467 92.85398613 58.88567787 122.99321813 125.44806187 128.80013973 207.9281792C901.19527467 249.91905386999997 986.29178027 271.38392533 984.512592 325.32498667000004zM751.90717973 59.77511787000003c-19.3025568-10.09225493-18.72295573-35.54119787-18.1160672-62.43532267 0.3329152-14.5216704 0.9529024-41.56314987-5.33429013-46.79592853l-1.63183253-1.63947307c-0.18883413-0.1298912-5.1443648-3.337888-26.10713387-3.337888-11.0669888 0-22.65463467 0.83610987-32.30482133 1.52377067-4.30498133 0.2892544-8.24866667 0.56213653-11.68697494 0.7487872 0.36129493 1.5816224 0.75097067 3.11849173 1.05441494 4.37047253 2.91765013 11.65968747 6.22715947 24.88789867-2.16777174 35.43859413-5.54713813 6.9715808-13.29152 10.3640448-25.12475946 8.5542944l-2.2660096-0.48791253c-36.799728-10.49393707-62.44187093-12.192352-109.60237014-12.192352-15.94938667 0-31.88349227 0.7487872-47.37334613 2.2147072l-1.83376427 0.084048c-18.0745888 0-19.89416427-18.2001152-20.76192746-26.939968-0.34710507-3.45140693-1.03913387-10.4819296-2.21143254-14.7792704-11.99151147-0.4180544-23.5485952-0.73241387-33.41708693-0.73241387-13.7532352 0-19.21414293 0.66037333-21.2378336 1.0467744l-5.1858432-0.084048c-2.61529813 3.40665493-2.07935787 18.1575456-1.84795413 24.45347094 0.4911872 13.8591136 0.96709227 26.94215147-9.5497664 34.9059296l-2.471216 1.8828832-2.9624032 0.94962773c-5.17165333 1.68313387-10.28545493 3.43612587-15.34249814 5.2622496l-5.40523946 1.95492373-5.561328-1.46810346c-18.53739627-4.8441952-17.1205952-24.4676608-16.5868384-31.85620374 0.1593632-2.18523627 0.4180544-5.82329493 0.60688853-7.74983893-6.11036587-1.43754027-16.3532512-2.6731488-29.1404864-2.6731488-22.98755093 0-38.80704533 3.72428907-44.38365547 6.32648853-4.68155733 20.3416896 1.6034528 36.48645973 6.2555392 48.4757888 4.05938773 10.46773973 9.637088 24.81476587-1.53250346 35.81298774l-2.29657174 1.89707306c-8.50954133 5.99466453-16.73091947 11.2285344-24.63248106 16.23209174-18.40750507 11.68588373-34.29904107 21.78032213-48.35681174 39.30369066-27.99984107 30.36299627-55.23342933 31.1401632-77.1065312 31.773248-15.6896032 0.44425173-27.2063008 0.77607573-39.47069333 10.89561814-15.24207787 23.73742933-2.88927147 92.59965973 2.57163627 102.9647968 1.45937067 1.8839744 1.58926293 2.02587307 8.50954133 2.07062613 11.50032427 0.07094933 32.91170987 0.18555947 44.9174112 31.68483413l1.12645547 5.0472192c4.95662187 68.43107733 37.20250133 108.95946133 98.9228736 164.12194134l14.0719616 12.59403413-13.29042774 13.37010987c-10.92290667 10.984032-16.0094208 26.48152747-13.5807744 41.47691946 1.80538453 11.11392427 7.51188587 19.89743893 14.5336768 23.5496864 7.3678048 3.16215253 15.08380587 4.759056 22.95698774 4.759056 35.38292693 0 65.36061333-31.3977632 65.621488-31.6859264l6.93556053-7.44857706 10.05623467 1.97020586c1.0686048 0.2019328 107.75114133 20.90382613 181.87998826 20.90382614 209.92348907 0 350.96073493-109.92218773 350.96073494-273.5278368C863.00930773 166.29174293000005 834.93742613 112.4805728 751.90717973 59.77511787000003zM243.87249173 405.07192107c-29.6753344 0-53.81662827-22.85984213-53.81662826-50.96446934 0-28.09152853 24.14129387-50.95137067 53.81662826-50.95137066 29.66114453 0 53.8035296 22.85874987 53.8035296 50.95137066C297.67492907 382.21098773000006 273.532544 405.07192107 243.87249173 405.07192107zM243.87249173 339.16881920000003c-9.5497664 0-17.29523947 6.70088213-17.29523946 14.9386336 0 8.25303253 7.7443808 14.95064 17.29523946 14.95064 9.52138667 0 17.27886613-6.69869867 17.27886614-14.95064C261.15135787 345.86970133 253.39278613 339.16881920000003 243.87249173 339.16881920000003zM525.4688928 627.59053653l0 13.78816427c32.71196053 2.09791467 41.10580053 24.65540267 41.10580053 33.8995424 0 10.8541408-0.66583147 28.86869547-32.7228768 37.6238304-2.9624032 0.80554667-5.7523456 1.46592-8.38183253 2.11319573l0 28.69514347c7.39727573 0 13.48144533-6.9737632 13.63971627-15.56844373l23.3455712 0c-1.31310613 22.383936-17.4207648 32.4478112-36.98528747 34.54681706l0 12.49361387-9.7091296 0 0-12.49361387c-19.73480107-1.13627947-38.14121387-12.47833173-38.14121387-34.70508906 0-21.56310827 16.44166507-27.88850453 32.8833312-32.2742592 2.1372096-0.48900373 4.10304853-0.97800747 5.25679254-1.4528224l0-33.8995424c-10.02676373 1.94073387-17.75477227 9.4013184-17.59759254 21.40701973l-23.3466624 0c2.4701248-25.4620416 16.61303467-38.60074667 40.94207147-40.3832096l0-13.78816427L525.4688928 627.59271893zM525.4688928 691.4950527999999c12.98807467-3.56492587 17.75695467-6.65612907 17.75695467-15.25299307 0-10.37932693-9.70803733-15.08162347-17.75695467-15.88717013L525.4688928 691.4950527999999zM500.9673952 730.25516373c0 8.92759573 7.39618453 13.45634027 14.79346027 13.45634027l0-26.42367573C505.24399573 719.7164736 500.9673952 723.12421973 500.9673952 730.25516373z"  horiz-adv-x="1024" />

    
    <glyph glyph-name="biyan" unicode="&#58911;" d="M990.674859 308.260355c12.118343 18.177515 6.059172 36.35503-6.059171 48.473373-18.177515 12.118343-36.35503 6.059172-48.473373-6.059172 0 0-133.301775-266.60355-424.142012-272.662722C215.100895 84.071006 87.858291 350.674556 87.858291 350.674556c-12.118343 12.118343-36.35503 18.177515-48.473373 6.059172s-18.177515-36.35503-6.059171-48.473373c6.059172-6.059172 48.473373-96.946746 115.12426-145.420118L57.562433 65.893491c-12.118343-12.118343-12.118343-36.35503 0-48.473373 6.059172-6.059172 12.118343-12.118343 18.177515-12.118343s18.177515 6.059172 24.236686 12.118343l96.946746 96.946746c42.414201-30.295858 96.946746-60.591716 157.538461-78.769231l-36.355029-121.183432c-6.059172-18.177515 6.059172-36.35503 24.236686-42.414201h12.118343c18.177515 0 30.295858 12.118343 30.295858 24.236686l36.35503 121.183432c30.295858 0 60.591716-6.059172 90.887574-6.059171s60.591716 6.059172 84.828402 6.059171l36.35503-121.183432c6.059172-18.177515 18.177515-24.236686 30.295858-24.236686h6.059171c18.177515 6.059172 30.295858 24.236686 24.236687 42.414201l-36.35503 121.183432c60.591716 18.177515 115.12426 48.473373 157.538462 78.769231l90.887574-96.946746c6.059172-6.059172 18.177515-12.118343 24.236686-12.118343s18.177515 6.059172 24.236687 12.118343c12.118343 12.118343 12.118343 36.35503 0 48.473373L875.550599 162.840237c72.710059 54.532544 115.12426 145.420118 115.12426 145.420118z"  horiz-adv-x="1024" />

    
    <glyph glyph-name="touxiang" unicode="&#58910;" d="M512 896C230.4 896 0 665.6 0 384s230.4-512 512-512 512 230.4 512 512S793.6 896 512 896z m12.8-153.6c195.2256 0 195.2256-147.2 195.2256-230.4s-76.8-236.8-195.2256-239.9744c-115.2 0-195.2256 153.6-195.2256 239.9744 0 83.2 0 230.4 195.2256 230.4zM512-99.1744c-147.2 0-281.6 67.1744-371.2 172.7488 12.8 32.0512 28.8256 67.2256 51.2 86.4256 47.9744 38.4 192 102.4 192 102.4l89.6-172.8 15.9744 41.6256-25.6 51.2 51.2 51.2 51.2-51.2L544.0512 128l12.8-41.6256 92.8256 169.6256s143.9744-64 192-102.4c22.3744-15.9744 38.4-44.8 47.9744-70.4C803.2256-28.8256 665.6-99.1744 512-99.1744z"  horiz-adv-x="1024" />

    
    <glyph glyph-name="time" unicode="&#58627;" d="M517.12-97.53088000000002c-64.44032 0-126.96064 12.6208-185.83552 37.5296-56.85248 24.04352-107.90912 58.46528-151.75168 102.30784-43.84256 43.84256-78.26432 94.88896-102.30784 151.74144-24.90368 58.88-37.5296 121.40544-37.5296 185.84064 0 64.44544 12.62592 126.97088 37.5296 185.83552 24.04864 56.85248 58.4704 107.90912 102.30784 151.75168 43.84256 43.83744 94.8992 78.2592 151.75168 102.30784C390.15936 844.69248 452.67968 857.31328 517.12 857.31328s126.97088-12.6208 185.84064-37.52448c56.85248-24.04864 107.90912-58.47552 151.75168-102.31296s78.2592-94.89408 102.30784-151.74656c24.89856-58.87488 37.51936-121.39008 37.51936-185.83552 0-64.45056-12.6208-126.96064-37.51936-185.84064-24.04864-56.85248-58.4704-107.89888-102.31808-151.74144-43.83232-43.84256-94.88896-78.26432-151.74144-102.30784C644.09088-84.91008 581.56032-97.53088000000002 517.12-97.53088000000002L517.12-97.53088000000002zM517.12 824.51456c-245.16608 0-444.6208-199.45984-444.6208-444.62592 0-245.16608 199.45984-444.63104 444.6208-444.63104 245.1712 0 444.63104 199.46496 444.63104 444.63104C961.75104 625.05984 762.2912 824.51456 517.12 824.51456L517.12 824.51456zM472.3968 283.39712c0-10.73664-8.68864-19.39456-19.42016-19.39456l0 0c-10.69056 0-19.3792 8.65792-19.3792 19.39456L433.59744 689.24416c0 10.73152 8.68864 19.4048 19.3792 19.4048l0 0c10.73152 0 19.42016-8.66816 19.42016-19.4048L472.3968 283.39712 472.3968 283.39712zM449.85344 263.99744c-8.9856 0-16.26112 8.65792-16.26112 19.39456l0 0c0 10.7264 7.27552 19.39456 16.26112 19.39456l340.864 0c8.99072 0 16.31232-8.66816 16.31232-19.39456l0 0c0-10.73664-7.3216-19.39456-16.31232-19.39456L449.85344 263.99744 449.85344 263.99744z"  horiz-adv-x="1024" />

    
    <glyph glyph-name="shouyimingxi" unicode="&#58912;" d="M676.514107 168.125392H544.100313v47.347962h132.413794c12.037618 0 21.667712 9.630094 21.667711 21.667712 0 12.037618-9.630094 21.667712-21.667711 21.667711H574.595611l101.918496 142.846395c6.420063 10.432602 2.407524 24.075235-8.025079 29.69279-10.432602 6.420063-24.075235 2.407524-29.69279-8.025078L522.432602 260.413793 405.266458 424.125392c-6.420063 10.432602-19.260188 14.445141-29.69279 8.025078-10.432602-6.420063-14.445141-19.260188-8.025079-29.69279l101.918496-142.846395H368.351097c-12.037618 0-21.667712-9.630094-21.667711-21.667711 0-12.037618 9.630094-21.667712 21.667711-21.667712h132.413793v-47.347962H368.351097c-12.037618 0-21.667712-9.630094-21.667711-21.667712 0-12.037618 9.630094-21.667712 21.667711-21.667712h132.413793v-89.880877c0-12.037618 9.630094-21.667712 21.667712-21.667712 12.037618 0 21.667712 9.630094 21.667711 21.667712v88.275862h132.413794c12.037618 0 21.667712 9.630094 21.667711 21.667711 0 12.840125-9.630094 22.470219-21.667711 22.47022z m-1.605016 387.611285c8.025078 11.23511 12.840125 21.667712 12.840125 21.667712l69.818182 185.37931c0 24.075235-19.260188 44.137931-44.137931 44.137931 0 0-0.802508 0.802508-4.815047 0.802508-2.407524 0-4.815047 0-8.827586-0.802508-12.840125-1.605016-40.9279-48.952978-74.633229-48.952978-33.705329 0-57.780564 29.69279-74.633229 48.952978-8.025078 9.630094-18.45768 13.642633-29.69279 13.642633-12.037618 0-25.680251-4.815047-35.310345-13.642633-19.260188-16.050157-40.9279-48.952978-74.633228-48.952978-33.705329 0-62.595611 48.15047-74.633229 48.952978-4.012539 0.802508-6.420063 0.802508-8.827587 0.802508-4.012539 0-4.815047-0.802508-4.815047-0.802508-24.075235 0-48.952978-19.260188-44.137931-44.137931 5.617555-24.075235 74.633229-185.37931 74.633229-185.37931s5.617555-12.840125 15.247649-24.877743c-158.094044-65.003135-269.642633-221.492163-269.642633-376.376176 0-203.034483 191.799373-285.69279 427.736677-285.69279s427.736677 82.658307 427.736677 285.69279c-0.802508 158.094044-116.363636 316.990596-279.272727 379.586207z m-281.680251 40.125392c-26.482759 60.990596-55.373041 131.611285-66.60815 162.909091 17.655172-17.655172 46.545455-44.940439 85.06583-44.940439 43.335423 0 72.225705 28.890282 90.683386 48.15047 4.815047 4.815047 8.827586 8.827586 12.037618 11.23511 2.407524 1.605016 4.815047 2.407524 6.420062 3.210031 19.260188-22.470219 53.768025-62.595611 105.931035-62.595611 37.717868 0 65.805643 26.482759 83.460815 44.137931l-60.990596-162.909091c-1.605016-4.012539-9.630094-16.050157-15.247649-24.877743-33.705329 8.827586-69.818182 14.445141-105.931034 14.445141-40.9279 0-79.448276-6.420063-117.166144-16.852664-8.025078 9.630094-16.050157 24.075235-17.655173 28.087774z m488.727273-527.247649c-16.852665-28.890282-42.532915-53.768025-76.238245-73.028213-66.60815-39.322884-162.909091-60.188088-280.075235-60.188088-116.363636 0-213.467085 20.865204-280.075235 60.188088-33.705329 20.062696-59.38558 44.940439-76.238244 73.028213-18.45768 30.495298-27.285266 66.60815-27.285267 107.53605 0 43.335423 9.630094 87.473354 29.69279 131.611285 19.260188 42.532915 48.15047 83.460815 82.658307 117.968653 36.112853 35.310345 77.040752 63.398119 122.783699 83.460815 48.15047 20.865204 97.905956 31.297806 148.46395 31.297805s101.115987-10.432602 148.46395-31.297805c45.742947-20.062696 86.670846-48.15047 122.783699-83.460815 34.507837-34.507837 63.398119-75.435737 82.658307-117.968653 20.062696-43.335423 29.69279-87.473354 29.69279-131.611285 0-40.9279-8.827586-77.040752-27.285266-107.53605z m0 0"  horiz-adv-x="1024" />

    
    <glyph glyph-name="phone" unicode="&#58940;" d="M692.2877293-8.33057255999995c-50.36918994 0-115.39914258 33.55305205-161.08974581 61.70730293-61.17908731 37.70658369-127.09086328 89.86155469-185.5958458 146.8646253l-0.21114579 0.20640321-18.57451554 18.58066437c-57.0030706 58.50234756-109.15839316 124.4176374-146.86111142 185.62658642-28.15196748 45.6874418-61.71520781 110.71915136-61.71520781 161.09009736 0 53.9070249 38.54677588 111.11702607 55.11821572 133.21391924 12.92873467 17.24475323 58.11237685 73.50652969 96.50017793 73.50652969 15.76216494 0 32.73622295-10.31611114 55.04707266-33.45520781 19.73300801-20.45761435 38.66798232-45.88910244 51.07675693-63.62166885 16.66506797-23.80573477 32.07766553-48.72903223 43.40260459-70.18616338 18.33561562-34.73841973 20.45743857-49.63843477 20.45743858-57.82077774 0-16.51610654-8.62536269-30.84188203-25.63701241-42.57646523-11.20144834-7.72597266-24.64539961-13.54003857-37.64562891-19.16649756-8.77256807-3.79465401-22.77284151-9.84761982-28.11683495-14.10690058 1.8646541-7.89250078 10.01186455-26.95360078 32.02145331-59.26876085 20.51031269-30.11323535 47.03301387-62.77620762 70.99543916-87.38120478 24.60007881-23.95768271 57.22791856-50.48688339 87.35397716-70.9928042 32.29882383-22.00344082 51.35992383-30.15328623 59.26384248-32.0170623 4.24663242 5.33661592 10.31136856 19.33952432 14.09864414 28.10682245 5.62382402 13.00778261 11.43999756 26.45384151 19.17088857 37.65476339 11.73510967 17.0084874 26.06299365 25.63262138 42.5724249 25.63262138 8.18849092 0 23.08464141-2.1202418 57.8288584-20.45234443 21.4553751-11.32669512 46.38517207-26.74104961 70.18739385-43.40681982 17.72782471-12.41140957 43.15913613-31.34339737 63.61850742-51.07377042 23.13909668-22.30979589 33.45134326-39.28227276 33.45134326-55.05146455 0-38.38463964-56.25387158-83.56582266-73.49511182-96.49543535C803.40879482 30.21040604999996 746.19141699-8.33057255999995 692.2877293-8.33057255999995L692.2877293-8.33057255999995 692.2877293-8.33057255999995zM377.88058496 233.15587529000004c56.12440869-54.67203369 119.15655557-104.56957089 177.51064395-140.52849081 56.57006338-34.86612656 106.47023467-54.85999219 136.89667617-54.85999219 27.10712901 0 65.75016709 16.55352247 103.37858086 44.27283427 16.49028428 12.16196895 31.49973721 25.69849453 42.26782675 38.12132198 10.10320839 11.6639666 13.79738408 19.26925927 14.73454161 22.3407123-3.90672598 8.39313721-27.09219815 34.61053799-81.20755811 71.94137959-21.22789307 14.64495381-43.17599971 28.0987418-61.79776875 37.89366328-23.38572656 12.29547217-33.13427344 14.41483594-35.35973701 14.76264726-0.87040635-0.59549502-3.41662852-2.72276367-7.28734395-9.2143582-4.33270722-7.26363018-8.50204776-16.89430781-12.52998105-26.20686094-4.95191602-11.46810323-10.08388565-23.32354219-16.37522579-32.89098076-10.2314417-15.55839667-22.79216425-23.45265352-37.3317205-23.4614373-0.26173652 0-0.54016084 0.00351299-0.82209903 0.01756582-7.07215781 0.14755605-28.6160669 0.60252099-87.10717148 40.43549531-32.28828398 21.9990498-67.35571963 50.51850205-93.78848144 76.30219248l-0.41368448 0.40753653c-25.77754248 26.44488281-54.2961167 61.50353467-76.29165351 93.82220859-39.83964873 58.48653779-40.30199209 80.03150068-40.45042617 87.11103604-0.31566445 14.8065627 7.49849062 27.58422744 23.21586122 37.99466894 9.61398984 6.36195586 21.56727217 11.53397724 33.12794971 16.53718623 9.3104455 4.02617636 18.93848818 8.19112588 26.20650938 12.52032012 6.48808154 3.86895849 8.62536269 6.41904609 9.21383086 7.28470898-0.3492167 2.2317873-2.47121543 11.97875302-14.76563379 35.36149394-9.79052959 18.62053945-23.24835879 40.57075459-37.88804268 61.79566114-37.33382812 54.12045498-63.55491768 77.30346709-71.93909619 81.20931503-3.07233105-0.9419001-10.68236631-4.63484619-22.34246924-14.73541962-12.42757002-10.76053623-25.9640956-25.77754248-38.1155247-42.27081328-27.72563555-37.62191425-44.27863154-76.26670928-44.27863155-103.37471631 0-30.42679219 19.9929876-80.32169443 54.85472227-136.89667618 35.96506875-58.38465323 85.86436201-121.41644942 140.52884238-177.53769579L377.88058496 233.15587529000004 377.88058496 233.15587529000004 377.88058496 233.15587529000004zM652.24571768 398.60994785c-8.04796172 0-15.17369677 5.76698818-16.61939649 13.96777588-4.13420888 23.44422217-17.70850107 43.81751865-38.23111054 57.36194825-20.81157364 13.73273964-46.24727695 18.83361709-71.62782276 14.35950263-9.19240049-1.62399638-17.95618477 4.5153958-19.57052021 13.70287705-1.62224033 9.18941396 4.51276084 17.95390137 13.70164745 19.57438477 33.92826592 5.97989092 68.06188125-0.92134776 96.11073546-19.43912461 28.34572325-18.70837031 47.13173613-47.00965078 52.89608935-79.69458076 1.61784844-9.18836016-4.51715185-17.95267177-13.70516132-19.56999288C654.20522862 398.69549531 653.21800771 398.60994785 652.24571768 398.60994785L652.24571768 398.60994785zM753.95199482 442.23985869c-8.04356982 0-15.17018379 5.76698818-16.61676152 13.96162793-8.02336904 45.50071289-34.31279092 85.0001045-74.0326377 111.21662637-40.01056787 26.40729112-88.85501016 36.2253999-137.53520859 27.63868271-9.19240049-1.61960537-17.94827989 4.51803076-19.57052021 13.70516133-1.62224033 9.18748213 4.51276084 17.95267177 13.70164746 19.57227715 57.22528359 10.08862822 114.76324512-1.52615302 162.01812041-32.71830556 47.54471748-31.38151641 79.04427891-78.80713506 88.69954921-133.54732618 1.61609151-9.18748213-4.51803076-17.95214443-13.70603935-19.57174981C755.91501963 442.32593349 754.92691982 442.23985869 753.95199482 442.23985869L753.95199482 442.23985869zM889.74726963 454.83395683c-8.04356982 0-15.17352099 5.76646172-16.61482881 13.96549249-13.68935156 77.64987305-58.51903536 145.03071182-126.22959228 189.71687988-67.99864307 44.88027451-150.96545771 61.57028672-233.61344562 46.99911093-9.1888875-1.61960537-17.94511846 4.5153958-19.5673579 13.70375596-1.6182 9.18853594 4.51416621 17.95302334 13.70551201 19.57139825 91.18956006 16.08134326 182.84971904-2.41149023 258.09442646-52.07311231 75.52927969-49.85414825 125.57085908-125.16244453 140.88859893-212.0509169 1.61872646-9.18713057-4.52154375-17.95126641-13.70867432-19.57227714C891.71029355 454.92003076 890.72307266 454.83395683 889.74726963 454.83395683L889.74726963 454.83395683z"  horiz-adv-x="1024" />

    
    <glyph glyph-name="fankui" unicode="&#58991;" d="M431.2 272.697143a33.074286 33.074286 0 0 0 32.982857-32.982857v-9.074286a32.982857 32.982857 0 0 0-65.954286 0v9.074286a33.074286 33.074286 0 0 0 32.971429 32.982857zM278.674286 534.857143s2.468571-22.262857 28.034285-22.262857S333.908571 534.857143 333.908571 534.857143c-2.468571 72.548571 31.325714 108.011429 101.405715 103.885714 46.171429-4.948571 70.08-31.325714 71.725714-78.32-3.302857-20.571429-20.571429-47.817143-51.942857-80.8-41.222857-42.045714-62.662857-79.154286-62.662857-112.125714V333.714286s3.302857-20.571429 26.388571-20.571429 26.388571 20.571429 26.388572 20.571429v23.897143c0 28.034286 19.782857 61.005714 59.36 99.76 42.045714 37.931429 62.662857 73.382857 62.662857 104.708571-3.302857 87.394286-48.64 132.742857-136.868572 136C328.971429 698.125714 278.674286 644.571429 278.674286 534.857143zM974.525714 280.937143l-112.125714 76.674286-19.782857 13.188571-13.188572-19.782857-211.897142-307.531429-4.125715-5.714285v-7.417143l-1.645714-122.022857V-128l33.805714 13.188571 113.782857 46.171429 6.594286 2.468571 4.125714 5.714286L981.131429 248l13.154285 19.748571zM660.982857 11.165714l61.931429-42.377143-62.857143-25.508571z m95.394286-5.325714l-72.48 49.588571 171.074286 249.92 72.491428-49.565714zM815.405714 816h0.822857V840.765714c0 29.714286-25.554286 55.234286-55.234285 55.234286H84.925714C55.234286 896 29.714286 870.445714 29.714286 840.765714v-785.737143c0-29.714286 25.554286-55.234286 55.234285-55.234285h455.908572l274.548571 405.645714z m-49.462857-395.725714l-251.428571-371.017143H84.925714c-2.468571 0-5.714286 3.302857-5.714285 5.714286V840.765714c0 2.468571 3.302857 5.714286 5.714285 5.714286H760.994286a6.777143 6.777143 0 0 0 4.948571-3.302857z"  horiz-adv-x="1024" />

    
    <glyph glyph-name="suo11" unicode="&#58631;" d="M116.587 455.829h564.044c29.993 0 54-24.755 54-55.687v-408.335c0-30.931-24.007-55.687-54-55.687h-564.044c-30.003 0-54 24.755-54 55.687v408.335c0 30.931 23.997 55.687 54 55.687zM368.607 183.60299999999995v-86.618c0-6.187 5.997-6.187 5.997-6.187h48.003c6.007 0 6.007 6.187 6.007 6.187v86.618c23.997 12.372 36 37.118 36 61.864 0 37.128-30.003 68.059-66.003 68.059s-66.013-30.931-66.013-68.049c0-30.941 12.003-49.5 36-61.872zM900.705 598.9010000000001c0 74.236-61.864 142.295-142.295 142.295-74.245 0-142.295-61.864-142.295-142.295v-148.491h-80.431v154.677c0 123.736 98.991 228.913 228.913 228.913 123.736 0 228.922-98.991 228.922-228.913v-148.491h-86.618l-6.187 142.295z"  horiz-adv-x="1067" />

    
    <glyph glyph-name="jilu-copy-copy" unicode="&#58698;" d="M55.634646 879.874016h630.525984C707.930709 879.874016 725.669291 862.135433 725.669291 840.365354v-912.730708c0-21.770079-17.738583-39.508661-39.508661-39.508662H55.634646c-21.770079 0-39.508661 17.738583-39.508662 39.508662V840.365354C16.125984 862.135433 33.864567 879.874016 55.634646 879.874016zM686.16063-128H55.634646c-30.63937 0-55.634646 24.995276-55.634646 55.634646V840.365354C0 871.004724 24.995276 896 55.634646 896h630.525984C716.8 896 741.795276 871.004724 741.795276 840.365354v-912.730708c0-30.63937-24.995276-55.634646-55.634646-55.634646zM55.634646 863.748031C42.733858 863.748031 32.251969 853.266142 32.251969 840.365354v-912.730708c0-12.900787 10.48189-23.382677 23.382677-23.382677h630.525984c12.900787 0 23.382677 10.48189 23.382677 23.382677V840.365354C709.543307 853.266142 699.061417 863.748031 686.16063 863.748031H55.634646zM275.754331 29.228345999999988c-4.031496 0-8.062992 1.612598-11.288189 4.837796L171.741732 125.98425199999997c-6.450394 6.450394-6.450394 16.125984 0 22.576378 6.450394 6.450394 16.125984 6.450394 22.576378 0l92.72441-92.72441c6.450394-6.450394 6.450394-16.125984 0-22.576377-3.225197-2.418898-7.256693-4.031496-11.288189-4.031497zM181.417323 26.809448999999972c-4.031496 0-8.062992 1.612598-11.288189 4.837795-6.450394 6.450394-6.450394 16.125984 0 22.576378l96.755905 96.755906c6.450394 6.450394 16.125984 6.450394 22.576378 0 6.450394-6.450394 6.450394-16.125984 0-22.576378l-96.755905-96.755906c-3.225197-3.225197-7.256693-4.837795-11.288189-4.837795zM420.08189001 174.36220500000002l541.83307099 541.833071c8.869291 7.256693 22.57637799 6.45039401 29.83307-2.41889801l26.60787501-26.60787399c8.869291-7.256693 9.675591-20.96378 2.41889699-29.833071L478.941732 115.50236199000005l-83.85511801-24.18897598 24.995276 83.04881899zM395.086614 75.18740200000002c-4.031496 0-8.062992 1.612598-11.288189 4.837795-4.031496 4.031496-5.644094 10.48189-4.031496 16.125984l24.995276 83.048819c0.806299 2.418898 2.418898 4.837795 4.031496 6.450394l541.833071 541.833071 0.806299 0.806299c15.319685 12.900787 38.702362 10.48189 51.603149-4.031496l25.801575-25.801575c14.513386-12.900787 16.932283-36.283465 4.031496-51.60315 0-0.806299-0.806299-0.806299-0.806299-0.806299L490.229921 104.21417299999996c-1.612598-1.612598-4.031496-3.225197-7.256693-4.031496l-83.855118-24.188976c-0.806299-0.806299-2.418898-0.806299-4.031496-0.806299z m39.508662 91.111811L419.275591 114.69606299999998l51.603149 15.319685 538.607874 538.607874c1.612598 2.418898 0.806299 4.837795-0.806299 7.256693l-0.806299 0.806299-26.607874 26.607874-0.806299 0.806299c-1.612598 1.612598-4.837795 2.418898-7.256693 0.8063L434.595276 166.299213zM838.551181 367.067717c-4.031496 0-8.062992 1.612598-11.288189 4.837795-6.450394 6.450394-6.450394 16.125984 0 22.576378l145.133858 145.133858L878.866142 633.146457c-6.450394 6.450394-6.450394 16.125984 0 22.576378 6.450394 6.450394 16.125984 6.450394 22.576378 0l105.625197-105.625197c3.225197-3.225197 4.837795-7.256693 4.837795-11.288189 0-4.031496-1.612598-8.062992-4.837795-11.288189l-156.422048-156.422047c-3.225197-3.225197-8.062992-4.031496-12.094488-4.031496zM588.598425 704.907087H159.647244c-8.869291 0-16.125984 7.256693-16.125984 16.125984s7.256693 16.125984 16.125984 16.125984H588.598425c8.869291 0 16.125984-7.256693 16.125984-16.125984s-7.256693-16.125984-16.125984-16.125984zM588.598425 612.182677H159.647244c-8.869291 0-16.125984 7.256693-16.125984 16.125984s7.256693 16.125984 16.125984 16.125985H588.598425c8.869291 0 16.125984-7.256693 16.125984-16.125985s-7.256693-16.125984-16.125984-16.125984zM588.598425 515.426772H159.647244c-8.869291 0-16.125984 7.256693-16.125984 16.125984s7.256693 16.125984 16.125984 16.125984H588.598425c8.869291 0 16.125984-7.256693 16.125984-16.125984s-7.256693-16.125984-16.125984-16.125984zM588.598425 422.702362H159.647244c-8.869291 0-16.125984 7.256693-16.125984 16.125984s7.256693 16.125984 16.125984 16.125985H588.598425c8.869291 0 16.125984-7.256693 16.125984-16.125985s-7.256693-16.125984-16.125984-16.125984zM356.384252 318.68976399999997H159.647244c-8.869291 0-16.125984 7.256693-16.125984 16.125984s7.256693 16.125984 16.125984 16.125984h195.930709c8.869291 0 16.125984-7.256693 16.125984-16.125984s-6.450394-16.125984-15.319685-16.125984z"  horiz-adv-x="1041" />

    
    <glyph glyph-name="anquan2" unicode="&#58628;" d="M165.101068 654.059179c0 41.997991 0.041274 83.996988-0.041274 125.994978-0.013087 6.892788 1.731502 12.959087 6.751852 17.800246 5.867981 5.65859 12.923852 8.233696 20.836415 5.842814 21.678006-6.551521 43.409366-4.858273 65.193074-1.064069 19.12706 3.332135 36.951467 10.003452 53.935289 19.593156 36.408862 20.560583 74.395204 37.555479 115.0392 48.089456 23.471923 6.083412 47.288133 9.540376 71.573459 9.234343 16.688863-0.209391 33.414974 0.02114 50.056523-1.033868 34.222337-2.170418 66.982964-10.978932 98.772138-23.587692 23.915872-9.485008 46.937805-20.854536 68.459775-34.908898 15.236213-9.949091 31.885816-15.050983 49.496805-17.920042 17.307976-2.820738 34.679373-4.189833 52.140366-1.489897 3.789171 0.586899 7.561229 1.451643 11.244698 2.519738 16.096931 4.672036 30.044585-5.635436 30.108006-22.449128 0.065435-17.468039 0.016107-34.937085 0.0151-52.406131 0-58.057674 0.276839-116.116355-0.069461-174.172016-0.497304-83.420156-20.017978-162.510549-57.012733-237.061789-61.743157-124.423539-154.694629-218.422973-278.11148-282.276146-8.485368-4.389157-16.420078-4.466672-24.895379-0.025167-143.877773 75.35961-244.476042 188.847504-300.434773 341.46131-16.337529 44.554976-26.363129 90.712599-29.513054 138.0561-1.915726 28.798306-1.677141 57.747614-2.136191 86.633502-0.281872 17.718704-0.052348 35.445462-0.052348 53.1692C166.005073 654.059179 165.552064 654.059179 165.101068 654.059179zM510.502553 455.726667c0 116.146556 0 231.804868 0 347.344391-0.46207 0.238585-0.678507 0.439922-0.905012 0.454016-1.280506 0.076508-2.565039 0.146976-3.846552 0.147983-45.083487 0.026174-88.295543-8.532682-128.741221-28.910048-35.241105-17.754945-71.116423-33.740134-109.617181-43.201989-8.662545-2.129144-17.137846-5.018337-25.830591-7.59747 0-1.778817 0.008053-3.183145-0.001007-4.585461-0.16107-23.247432-0.447976-46.494863-0.461063-69.742295-0.028187-50.71691-1.163731-101.487174 5.814626-151.929258 2.017401-14.58388 4.475732-29.108365 6.78608-44.007339C339.637505 454.375692 424.97842 455.050173 510.502553 455.726667zM511.404544 455.769954c0.621126-115.703613 1.239232-230.897843 1.860358-346.427299 1.748616 0.745955 3.048249 1.267419 4.319696 1.848278 29.47178 13.490617 55.328545 32.309631 79.262537 53.926229 31.201268 28.17718 58.274112 60.054942 83.203718 93.775949 18.532108 25.066516 37.458837 49.928674 51.350116 78.041425 6.692458 13.546992 14.060403 26.929894 19.029411 41.119152 8.126987 23.212197 14.697636 46.98512 18.648884 71.360041 0.970447 5.988783 0.578845 6.354211-5.425038 6.354211-82.443669 0.001007-164.886332 0.001007-247.330001 0.001007C514.802114 455.769954 513.276983 455.769954 511.404544 455.769954z"  horiz-adv-x="1024" />

    
    <glyph glyph-name="touzi" unicode="&#58941;" d="M234.031261-19.133678H92.363375a38.141354 38.141354 0 0 0-38.141354 38.141354v490.388836a38.141354 38.141354 0 0 0 38.141354 38.141354h141.667886a38.141354 38.141354 0 0 0 38.141354-38.141354v-490.388836a38.141354 38.141354 0 0 0-38.141354-38.141354z m-136.219121 43.590118h130.770356v479.491307H97.81214zM582.847565-19.133678h-141.667886a38.141354 38.141354 0 0 0-38.141354 38.141354V683.498171a38.141354 38.141354 0 0 0 38.141354 38.141354h141.667886a38.141354 38.141354 0 0 0 38.141354-38.141354v-664.490495a38.141354 38.141354 0 0 0-38.141354-38.141354z m-136.219121 43.590118h130.770356V678.049406h-130.770356zM931.636625-19.133678h-141.667886a38.141354 38.141354 0 0 0-38.141354 38.141354V857.858646a38.141354 38.141354 0 0 0 38.141354 38.141354h141.667886a38.141354 38.141354 0 0 0 38.141354-38.141354v-838.85097a38.141354 38.141354 0 0 0-38.141354-38.141354z m-136.219121 43.590118h130.770356V852.409881h-130.770356zM947.982919-128H76.017081a21.795059 21.795059 0 0 0 0 43.590119h871.965838a21.795059 21.795059 0 0 0 0-43.590119z"  horiz-adv-x="1024" />

    
    <glyph glyph-name="zichan" unicode="&#58997;" d="M514.9 829C269.6 829 70 629.4 70 384s199.6-445 445-445 445 199.6 445 445S760.3 829 514.9 829z m0-829c-211.7 0-384 172.3-384 384s172.3 384 384 384 384-172.3 384-384-172.2-384-384-384zM685.6 385.3c16.8 0 30.5 13.6 30.5 30.5 0 16.8-13.6 30.5-30.5 30.5H566.1L678.4 579c10.9 12.9 9.3 32.1-3.6 43-12.9 10.9-32.1 9.3-43-3.6L514.9 480.2 398 618.3c-10.9 12.8-30.1 14.5-43 3.6-12.8-10.9-14.5-30.1-3.6-43l112.3-132.7H344.3c-16.8 0-30.5-13.6-30.5-30.5 0-16.8 13.6-30.5 30.5-30.5h140.2V300H344.3c-16.8 0-30.5-13.6-30.5-30.5 0-16.8 13.6-30.5 30.5-30.5h140.2v-128c0-16.8 13.6-30.5 30.5-30.5 16.8 0 30.5 13.6 30.5 30.5V239h140.2c16.8 0 30.5 13.6 30.5 30.5 0 16.8-13.6 30.5-30.5 30.5H545.4v85.3h140.2z"  horiz-adv-x="1024" />

    


  </font>
</defs>
</svg>
